# This file uses centimeters as units for non-parametric coordinates.

mtllib slope2.mtl
g default
v -6.166386 -3.480698 37.925379
v 6.166386 -3.480698 37.925379
v -6.166386 -0.720765 37.900154
v 6.166386 -0.720765 37.900154
v -6.166386 3.838901 37.873669
v 6.166386 3.838901 37.873669
v -6.166384 8.343418 37.809839
v 6.166386 8.343425 37.809839
v -6.166386 9.983013 22.685902
v 6.166386 9.983019 22.685905
v -6.166385 11.622609 7.561968
v 6.166385 11.622616 7.561968
v -6.166386 13.262205 -7.561968
v 6.166387 13.262211 -7.561967
v -6.166386 14.901804 -22.685905
v 6.166386 14.901810 -22.685905
v -6.166384 16.541403 -37.809839
v 6.166386 16.541409 -37.809839
v -6.166386 9.325599 -37.873669
v 6.166386 9.325599 -37.873669
v -6.166386 3.112011 -37.900154
v 6.166386 3.112011 -37.900154
v -6.166386 -3.480698 -37.925379
v 6.166386 -3.480698 -37.925379
v -6.166386 -3.480698 -22.755228
v 6.166386 -3.480698 -22.755228
v -6.166386 -3.480698 -7.585076
v 6.166386 -3.480698 -7.585076
v -6.166386 -3.480698 7.585075
v 6.166386 -3.480698 7.585075
v -6.166386 -3.480698 22.755228
v 6.166386 -3.480698 22.755228
v 6.166386 2.345456 -22.740094
v 6.166386 1.578901 -7.580032
v 6.166386 0.812346 7.580030
v 6.166386 0.045790 22.740094
v 6.166386 8.228260 -22.724202
v 6.166386 7.130921 -7.574735
v 6.166386 6.033579 7.574733
v 6.166386 4.936241 22.724202
v -6.166386 2.345456 -22.740094
v -6.166386 1.578901 -7.580032
v -6.166386 0.812346 7.580030
v -6.166386 0.045790 22.740094
v -6.166386 8.228260 -22.724202
v -6.166386 7.130921 -7.574735
v -6.166386 6.033579 7.574733
v -6.166386 4.936241 22.724202
vt -0.242232 -2.468927
vt 1.242232 -2.468927
vt -0.242232 -1.974105
vt 1.242232 -1.974105
vt -0.242232 -1.479284
vt 1.242232 -1.479284
vt -0.242232 -0.984463
vt 1.242232 -0.984463
vt -0.242232 -0.687571
vt 1.242232 -0.687571
vt -0.242232 -0.390678
vt 1.242232 -0.390678
vt -0.242232 -0.093785
vt 1.242232 -0.093785
vt -0.242232 0.203108
vt 1.242232 0.203108
vt -0.242232 0.500000
vt 1.242232 0.500000
vt -0.242232 0.994821
vt 1.242232 0.994821
vt -0.242232 1.489642
vt 1.242232 1.489642
vt -0.242232 1.984463
vt 1.242232 1.984463
vt -0.242232 2.281356
vt 1.242232 2.281356
vt -0.242232 2.578249
vt 1.242232 2.578249
vt -0.242232 2.875142
vt 1.242232 2.875142
vt -0.242232 3.172034
vt 1.242232 3.172034
vt -0.242232 3.468927
vt 1.242232 3.468927
vt 2.726695 -2.468927
vt 2.429802 -2.468927
vt 2.132910 -2.468927
vt 1.836017 -2.468927
vt 1.539124 -2.468927
vt 2.726695 -1.974105
vt 2.429802 -1.974105
vt 2.132910 -1.974105
vt 1.836017 -1.974105
vt 1.539124 -1.974105
vt 2.726695 -1.479284
vt 2.429802 -1.479284
vt 2.132910 -1.479284
vt 1.836017 -1.479284
vt 1.539124 -1.479284
vt 2.726695 -0.984463
vt 2.429802 -0.984463
vt 2.132910 -0.984463
vt 1.836017 -0.984463
vt 1.539124 -0.984463
vt -1.726695 -2.468927
vt -1.429802 -2.468927
vt -1.132910 -2.468927
vt -0.836017 -2.468927
vt -0.539124 -2.468927
vt -1.726695 -1.974105
vt -1.429802 -1.974105
vt -1.132910 -1.974105
vt -0.836017 -1.974105
vt -0.539124 -1.974105
vt -1.726695 -1.479284
vt -1.429802 -1.479284
vt -1.132910 -1.479284
vt -0.836017 -1.479284
vt -0.539124 -1.479284
vt -1.726695 -0.984463
vt -1.429802 -0.984463
vt -1.132910 -0.984463
vt -0.836017 -0.984463
vt -0.539124 -0.984463
vn 0.000000 0.009139 0.999958
vn 0.000000 0.009139 0.999958
vn 0.000000 0.007064 0.999975
vn 0.000000 0.007064 0.999975
vn 0.000000 0.009963 0.999950
vn 0.000000 0.009963 0.999950
vn 0.000000 0.014169 0.999900
vn 0.000000 0.014169 0.999900
vn -0.000001 0.994175 0.107779
vn -0.000001 0.994175 0.107779
vn -0.000001 0.994175 0.107779
vn -0.000001 0.994175 0.107779
vn -0.000001 0.994175 0.107779
vn -0.000001 0.994175 0.107779
vn -0.000001 0.994175 0.107779
vn -0.000001 0.994175 0.107779
vn -0.000000 0.994175 0.107779
vn -0.000000 0.994175 0.107779
vn -0.000000 0.994175 0.107779
vn -0.000000 0.994175 0.107779
vn 0.000000 0.008846 -0.999961
vn 0.000000 0.008846 -0.999961
vn 0.000000 0.006725 -0.999977
vn 0.000000 0.006725 -0.999977
vn 0.000000 0.004038 -0.999992
vn 0.000000 0.004038 -0.999992
vn 0.000000 0.003826 -0.999993
vn 0.000000 0.003826 -0.999993
vn 0.000000 -1.000000 0.000000
vn 0.000000 -1.000000 0.000000
vn 0.000000 -1.000000 0.000000
vn 0.000000 -1.000000 0.000000
vn 0.000000 -1.000000 0.000000
vn 0.000000 -1.000000 0.000000
vn 0.000000 -1.000000 0.000000
vn 0.000000 -1.000000 0.000000
vn 0.000000 -1.000000 0.000000
vn 0.000000 -1.000000 0.000000
vn 0.000000 -1.000000 0.000000
vn 0.000000 -1.000000 0.000000
vn 1.000000 0.000000 0.000000
vn 1.000000 0.000000 0.000000
vn 1.000000 0.000000 0.000000
vn 1.000000 -0.000000 0.000000
vn 1.000000 0.000000 0.000000
vn 1.000000 0.000000 0.000000
vn 1.000000 0.000000 0.000000
vn 1.000000 0.000000 0.000000
vn 1.000000 0.000000 0.000000
vn 1.000000 0.000000 0.000000
vn 1.000000 0.000000 0.000000
vn 1.000000 0.000000 0.000000
vn 1.000000 0.000000 0.000000
vn 1.000000 -0.000000 -0.000000
vn 1.000000 -0.000000 0.000000
vn 1.000000 0.000000 0.000000
vn 1.000000 0.000000 -0.000000
vn 1.000000 0.000000 0.000000
vn 1.000000 0.000000 0.000000
vn 1.000000 -0.000000 -0.000000
vn 1.000000 -0.000000 -0.000000
vn 1.000000 0.000000 0.000000
vn 1.000000 0.000000 -0.000000
vn 1.000000 0.000000 0.000000
vn -1.000000 0.000000 0.000000
vn -1.000000 0.000000 0.000000
vn -1.000000 -0.000000 0.000000
vn -1.000000 0.000000 0.000000
vn -1.000000 0.000000 0.000000
vn -1.000000 0.000000 0.000000
vn -1.000000 -0.000000 0.000000
vn -1.000000 0.000000 0.000000
vn -1.000000 -0.000000 0.000000
vn -1.000000 -0.000000 0.000000
vn -1.000000 0.000000 0.000000
vn -1.000000 0.000000 0.000000
vn -1.000000 0.000000 -0.000000
vn -1.000000 0.000000 -0.000000
vn -1.000000 -0.000000 0.000000
vn -1.000000 0.000000 -0.000000
vn -1.000000 0.000000 0.000000
vn -1.000000 0.000000 0.000000
vn -1.000000 0.000000 -0.000000
vn -1.000000 0.000000 -0.000000
vn -1.000000 0.000000 0.000000
vn -1.000000 0.000000 0.000000
vn -1.000000 0.000000 0.000000
vn -1.000000 0.000000 0.000000
s 1
g pCube1
usemtl blinn1SG
f 1/1/1 2/2/2 4/4/3 3/3/4
f 3/3/4 4/4/3 6/6/5 5/5/6
f 5/5/6 6/6/5 8/8/7 7/7/8
s 2
usemtl blinn2SG
f 7/7/9 8/8/10 10/10/11 9/9/12
f 9/9/12 10/10/11 12/12/13 11/11/14
f 11/11/14 12/12/13 14/14/15 13/13/16
f 13/13/16 14/14/15 16/16/17 15/15/18
f 15/15/18 16/16/17 18/18/19 17/17/20
s 3
usemtl blinn1SG
f 17/17/21 18/18/22 20/20/23 19/19/24
f 19/19/24 20/20/23 22/22/25 21/21/26
f 21/21/26 22/22/25 24/24/27 23/23/28
s 4
f 23/23/29 24/24/30 26/26/31 25/25/32
f 25/25/32 26/26/31 28/28/33 27/27/34
f 27/27/34 28/28/33 30/30/35 29/29/36
f 29/29/36 30/30/35 32/32/37 31/31/38
f 31/31/38 32/32/37 2/34/39 1/33/40
s 5
f 26/36/41 24/35/42 22/40/43 33/41/44
f 28/37/45 26/36/41 33/41/44 34/42/46
f 30/38/47 28/37/45 34/42/46 35/43/48
f 32/39/49 30/38/47 35/43/48 36/44/50
f 2/2/51 32/39/49 36/44/50 4/4/52
f 33/41/44 22/40/43 20/45/53 37/46/54
f 34/42/46 33/41/44 37/46/54 38/47/55
f 35/43/48 34/42/46 38/47/55 39/48/56
f 36/44/50 35/43/48 39/48/56 40/49/57
f 4/4/52 36/44/50 40/49/57 6/6/58
f 37/46/54 20/45/53 18/50/59 16/51/60
f 38/47/55 37/46/54 16/51/60 14/52/61
f 39/48/56 38/47/55 14/52/61 12/53/62
f 40/49/57 39/48/56 12/53/62 10/54/63
f 6/6/58 40/49/57 10/54/63 8/8/64
s 6
f 23/55/65 25/56/66 41/61/67 21/60/68
f 25/56/66 27/57/69 42/62/70 41/61/67
f 27/57/69 29/58/71 43/63/72 42/62/70
f 29/58/71 31/59/73 44/64/74 43/63/72
f 31/59/73 1/1/75 3/3/76 44/64/74
f 21/60/68 41/61/67 45/66/77 19/65/78
f 41/61/67 42/62/70 46/67/79 45/66/77
f 42/62/70 43/63/72 47/68/80 46/67/79
f 43/63/72 44/64/74 48/69/81 47/68/80
f 44/64/74 3/3/76 5/5/82 48/69/81
f 19/65/78 45/66/77 15/71/83 17/70/84
f 45/66/77 46/67/79 13/72/85 15/71/83
f 46/67/79 47/68/80 11/73/86 13/72/85
f 47/68/80 48/69/81 9/74/87 11/73/86
f 48/69/81 5/5/82 7/7/88 9/74/87
